<?xml version="1.0" encoding="UTF-8"?>
<!DOCTYPE svg
PUBLIC "-//W3C//DTD SVG 1.1//EN"
     "http://www.w3.org/Graphics/SVG/1.1/DTD/svg11.dtd">
     <!--Created with SF Symbol Generator (v1.0.0)-->

<svg version="1.1" xmlns="http://www.w3.org/2000/svg" xmlns:xlink="http://www.w3.org/1999/xlink" width="3300" height="2200">
<!--glyph: "logo.medium", point size: 100.0-->
<style>.SFSymbolsPreviewWireframe {fill:none;opacity:1.0;stroke:black;stroke-width:0.5}
</style>
<g id="Notes">
<rect height="2200" id="artboard" style="fill:white;opacity:1" width="3300" x="0" y="0"/>
<line style="fill:none;stroke:black;opacity:1;stroke-width:0.5;" x1="263" x2="3036" y1="292" y2="292"/>
<text style="stroke:none;fill:black;font-family:sans-serif;font-size:13;font-weight:bold;" transform="matrix(1 0 0 1 263 322)">Weight/Scale Variations</text>
<text style="stroke:none;fill:black;font-family:sans-serif;font-size:13;text-anchor:middle;" transform="matrix(1 0 0 1 559.711 322)">Ultralight</text>
<text style="stroke:none;fill:black;font-family:sans-serif;font-size:13;text-anchor:middle;" transform="matrix(1 0 0 1 856.422 322)">Thin</text>
<text style="stroke:none;fill:black;font-family:sans-serif;font-size:13;text-anchor:middle;" transform="matrix(1 0 0 1 1153.13 322)">Light</text>
<text style="stroke:none;fill:black;font-family:sans-serif;font-size:13;text-anchor:middle;" transform="matrix(1 0 0 1 1449.84 322)">Regular</text>
<text style="stroke:none;fill:black;font-family:sans-serif;font-size:13;text-anchor:middle;" transform="matrix(1 0 0 1 1746.56 322)">Medium</text>
<text style="stroke:none;fill:black;font-family:sans-serif;font-size:13;text-anchor:middle;" transform="matrix(1 0 0 1 2043.27 322)">Semibold</text>
<text style="stroke:none;fill:black;font-family:sans-serif;font-size:13;text-anchor:middle;" transform="matrix(1 0 0 1 2339.98 322)">Bold</text>
<text style="stroke:none;fill:black;font-family:sans-serif;font-size:13;text-anchor:middle;" transform="matrix(1 0 0 1 2636.69 322)">Heavy</text>
<text style="stroke:none;fill:black;font-family:sans-serif;font-size:13;text-anchor:middle;" transform="matrix(1 0 0 1 2933.4 322)">Black</text>
<line style="fill:none;stroke:black;opacity:1;stroke-width:0.5;" x1="263" x2="3036" y1="1903" y2="1903"/>
<text style="stroke:none;fill:black;font-family:sans-serif;font-size:13;font-weight:bold;" transform="matrix(1 0 0 1 263 1953)">Design Variations</text>
<text style="stroke:none;fill:black;font-family:sans-serif;font-size:13;" transform="matrix(1 0 0 1 263 1971)">Symbols are supported in up to nine weights and three scales.</text>
<text style="stroke:none;fill:black;font-family:sans-serif;font-size:13;" transform="matrix(1 0 0 1 263 1989)">For optimal layout with text and other symbols, vertically align</text>
<text style="stroke:none;fill:black;font-family:sans-serif;font-size:13;" transform="matrix(1 0 0 1 263 2007)">symbols with the adjacent text.</text>
<line style="fill:none;stroke:#00AEEF;stroke-width:0.5;opacity:1.0;" x1="776" x2="776" y1="1919" y2="1933"/>
<text style="stroke:none;fill:black;font-family:sans-serif;font-size:13;font-weight:bold;" transform="matrix(1 0 0 1 776 1953)">Margins</text>
<text style="stroke:none;fill:black;font-family:sans-serif;font-size:13;" transform="matrix(1 0 0 1 776 1971)">Leading and trailing margins on the left and right side of each symbol</text>
<text style="stroke:none;fill:black;font-family:sans-serif;font-size:13;" transform="matrix(1 0 0 1 776 1989)">can be adjusted by modifying the x-location of the margin guidelines.</text>
<text style="stroke:none;fill:black;font-family:sans-serif;font-size:13;" transform="matrix(1 0 0 1 776 2007)">Modifications are automatically applied proportionally to all</text>
<text style="stroke:none;fill:black;font-family:sans-serif;font-size:13;" transform="matrix(1 0 0 1 776 2025)">scales and weights.</text>
<text style="stroke:none;fill:black;font-family:sans-serif;font-size:13;font-weight:bold;" transform="matrix(1 0 0 1 1289 1953)">Exporting</text>
<text style="stroke:none;fill:black;font-family:sans-serif;font-size:13;" transform="matrix(1 0 0 1 1289 1971)">Symbols should be outlined when exporting to ensure the</text>
<text style="stroke:none;fill:black;font-family:sans-serif;font-size:13;" transform="matrix(1 0 0 1 1289 1989)">design is preserved when submitting to Xcode.</text>
<text id="template-version" style="stroke:none;fill:black;font-family:sans-serif;font-size:13;text-anchor:end;" transform="matrix(1 0 0 1 3036 1933)">Template v.5.0</text>
<text style="stroke:none;fill:black;font-family:sans-serif;font-size:13;text-anchor:end;" transform="matrix(1 0 0 1 3036 1951)">Requires Xcode 15 or greater</text>
<text id="descriptive-name" style="stroke:none;fill:black;font-family:sans-serif;font-size:13;text-anchor:end;" transform="matrix(1 0 0 1 3036 1969)">Generated from logo</text>
<text style="stroke:none;fill:black;font-family:sans-serif;font-size:13;text-anchor:end;" transform="matrix(1 0 0 1 3036 1987)">Typeset at 100.0 points</text>
<text style="stroke:none;fill:black;font-family:sans-serif;font-size:13;" transform="matrix(1 0 0 1 263 726)">Small</text>
<text style="stroke:none;fill:black;font-family:sans-serif;font-size:13;" transform="matrix(1 0 0 1 263 1156)">Medium</text>
<text style="stroke:none;fill:black;font-family:sans-serif;font-size:13;" transform="matrix(1 0 0 1 263 1586)">Large</text>
</g>
<g id="Guides">
<g id="H-reference" style="fill:#27AAE1;stroke:none;" transform="matrix(1 0 0 1 339 696)">
 <path d="M0.993654 0L3.63775 0L29.3281-67.1323L30.0303-67.1323L30.0303-70.459L28.1226-70.459ZM11.6885-24.4799L46.9815-24.4799L46.2315-26.7285L12.4385-26.7285ZM55.1196 0L57.7637 0L30.6382-70.459L29.4326-70.459L29.4326-67.1323Z"/>
</g>
<line id="Baseline-S" style="fill:none;stroke:#27AAE1;opacity:1;stroke-width:0.5;" x1="263" x2="3036" y1="696" y2="696"/>
<line id="Capline-S" style="fill:none;stroke:#27AAE1;opacity:1;stroke-width:0.5;" x1="263" x2="3036" y1="625.541" y2="625.541"/>
<g id="H-reference" style="fill:#27AAE1;stroke:none;" transform="matrix(1 0 0 1 339 1126)">
 <path d="M0.993654 0L3.63775 0L29.3281-67.1323L30.0303-67.1323L30.0303-70.459L28.1226-70.459ZM11.6885-24.4799L46.9815-24.4799L46.2315-26.7285L12.4385-26.7285ZM55.1196 0L57.7637 0L30.6382-70.459L29.4326-70.459L29.4326-67.1323Z"/>
</g>
<line id="Baseline-M" style="fill:none;stroke:#27AAE1;opacity:1;stroke-width:0.5;" x1="263" x2="3036" y1="1126" y2="1126"/>
<line id="Capline-M" style="fill:none;stroke:#27AAE1;opacity:1;stroke-width:0.5;" x1="263" x2="3036" y1="1055.54" y2="1055.54"/>
<g id="H-reference" style="fill:#27AAE1;stroke:none;" transform="matrix(1 0 0 1 339 1556)">
 <path d="M0.993654 0L3.63775 0L29.3281-67.1323L30.0303-67.1323L30.0303-70.459L28.1226-70.459ZM11.6885-24.4799L46.9815-24.4799L46.2315-26.7285L12.4385-26.7285ZM55.1196 0L57.7637 0L30.6382-70.459L29.4326-70.459L29.4326-67.1323Z"/>
</g>
<line id="Baseline-L" style="fill:none;stroke:#27AAE1;opacity:1;stroke-width:0.5;" x1="263" x2="3036" y1="1556" y2="1556"/>
<line id="Capline-L" style="fill:none;stroke:#27AAE1;opacity:1;stroke-width:0.5;" x1="263" x2="3036" y1="1485.54" y2="1485.54"/>
<line id="left-margin-Ultralight-S" style="fill:none;stroke:#00AEEF;stroke-width:0.5;opacity:1.0;" x1="502.76313822635" x2="502.76313822635" y1="600.785" y2="720.121"/>
<line id="right-margin-Ultralight-S" style="fill:none;stroke:#00AEEF;stroke-width:0.5;opacity:1.0;" x1="616.6588617736501" x2="616.6588617736501" y1="600.785" y2="720.121"/>
<line id="left-margin-Regular-S" style="fill:none;stroke:#00AEEF;stroke-width:0.5;opacity:1.0;" x1="1392.89213822635" x2="1392.89213822635" y1="600.785" y2="720.121"/>
<line id="right-margin-Regular-S" style="fill:none;stroke:#00AEEF;stroke-width:0.5;opacity:1.0;" x1="1506.7878617736499" x2="1506.7878617736499" y1="600.785" y2="720.121"/>
<line id="left-margin-Black-S" style="fill:none;stroke:#00AEEF;stroke-width:0.5;opacity:1.0;" x1="2876.45213822635" x2="2876.45213822635" y1="600.785" y2="720.121"/>
<line id="right-margin-Black-S" style="fill:none;stroke:#00AEEF;stroke-width:0.5;opacity:1.0;" x1="2990.34786177365" x2="2990.34786177365" y1="600.785" y2="720.121"/>
</g>
<g id="Symbols">
<g id="Ultralight-S" transform="matrix(1 0 0 1 502.76313822635 614.7705)">
<svg width="114" height="92" viewBox="0 0 114 92" fill="none" xmlns="http://www.w3.org/2000/svg">
<g id="Logo">
<g id="Union">
<path d="M32.4302 77.5909L31.9849 77.7119C31.1147 75.3038 30.9123 74.9599 29.4552 74.9599C27.8567 74.9599 27.8365 74.9598 27.8365 76.5583V82.4069L31.1758 82.2859V82.9331H27.8365V87.4058C27.8365 89.0045 28.059 89.0047 29.4552 89.0047C31.0742 89.0047 31.8027 88.4378 32.7538 85.7667L33.1991 85.868L32.4098 90.138L31.9849 90.0769C31.823 89.6117 31.5803 89.4698 30.9936 89.4698H24.1531V89.0856C25.8328 88.944 25.8731 88.9436 25.8731 87.2032V76.7608C25.8731 75.0204 25.8328 75.0207 24.1531 74.879V74.4942H30.6898C31.2159 74.4942 31.4788 74.3728 31.6205 73.8871L32.0658 73.8464L32.4302 77.5909Z" fill="#4F8375"/>
<path d="M53.4069 74.879C51.7272 75.0207 51.6863 75.0204 51.6863 76.7608V87.4058C51.6863 89.0045 51.9092 89.0047 53.3865 89.0047C55.1269 89.0047 55.9973 88.0735 56.8877 85.5641L57.333 85.6654L56.5437 90.138L56.1188 90.0769C55.9569 89.6115 55.7138 89.4698 55.1269 89.4698H48.0035V89.0856C49.6831 88.944 49.7236 88.9436 49.7236 87.2032V76.7608C49.7236 75.0205 49.683 75.0207 48.0035 74.879V74.4942H53.4069V74.879Z" fill="#4F8375"/>
<path d="M8.33702 78.6025L7.89173 78.7242C7.18342 76.235 6.15134 75.0001 4.75495 75.0001C3.6016 75.0002 2.73179 76.093 2.7317 77.4285C2.7317 80.97 9.0248 80.9702 9.02503 85.6246C9.02503 88.0329 7.24416 89.6724 4.75495 89.6724C3.39921 89.6723 2.79195 89.1869 2.40746 89.1869C2.12421 89.187 1.88117 89.3893 1.69907 90.0367H1.2544L0.93016 84.9366L1.37545 84.8156C2.04329 87.6285 3.17685 88.964 4.897 88.964C6.37426 88.9639 7.42668 87.952 7.42668 86.5152C7.42654 82.9131 1.07239 82.7309 1.07221 78.3598C1.07221 76.0123 2.83251 74.2918 5.01805 74.2917C5.98945 74.2917 6.51616 74.6159 6.83996 74.6159C7.16357 74.6158 7.34591 74.4334 7.44706 73.8871L7.89173 73.8464L8.33702 78.6025Z" fill="#4F8375"/>
<path fill-rule="evenodd" clip-rule="evenodd" d="M81.7701 87.2032C82.2963 88.9234 82.2961 88.944 83.5711 89.0856V89.4698H78.4913V89.0856C80.0091 88.9642 80.1912 88.8627 79.7055 87.2032L79.0583 84.9774H74.5251L73.9785 86.7987C73.4726 88.4581 73.6142 88.9642 75.0105 89.0856V89.4698H71.0443V89.0856C72.2786 88.9844 72.7238 88.5187 73.2701 86.7987L77.2975 74.0897H77.8237L81.7701 87.2032ZM74.6869 84.4716H78.8958L76.8318 77.4087L74.6869 84.4716Z" fill="#4F8375"/>
<path d="M102.984 74.879C101.304 75.0004 101.284 75.0205 101.284 76.7608V82.3668H107.517V76.7608C107.517 75.0205 107.477 75.0207 105.797 74.879V74.4942H111.18V74.879C109.501 75.0004 109.481 75.0205 109.481 76.7608V87.2032C109.481 88.9436 109.521 88.944 111.201 89.0856V89.4698H105.818V89.0856C107.497 88.9642 107.517 88.9436 107.517 87.2032V82.9331H101.284V87.2032C101.284 88.9436 101.325 88.944 103.004 89.0856V89.4698H97.6214V89.0856C99.3009 88.9642 99.3211 88.9435 99.3211 87.2032V76.7608C99.3211 75.0205 99.2807 75.0207 97.6011 74.879V74.4942H102.984V74.879Z" fill="#4F8375"/>
<path fill-rule="evenodd" clip-rule="evenodd" d="M79.1843 0.311975C79.3515 0.276072 79.5316 0.312314 79.6703 0.42129C79.8099 0.526453 79.8912 0.69261 79.9019 0.862873C80.7937 20.3535 66.186 28.6707 64.4416 29.5899C64.4407 29.5929 64.4372 29.5958 64.436 29.5967C63.6714 30.5792 63.0069 31.3521 62.4776 31.925C66.7821 31.0927 71.2626 30.3158 75.8844 29.6164C75.8885 29.614 75.8931 29.6146 75.8931 29.6146C75.9409 29.6054 80.1603 28.6576 83.2061 23.2823C83.2124 23.2718 83.2189 23.2607 83.2252 23.2502C83.397 22.9409 83.5617 22.6292 83.7205 22.3047C83.7305 22.2785 83.7438 22.2565 83.7576 22.2312C84.1547 21.4114 84.5107 20.5365 84.8131 19.6299C87.9892 10.1586 97.6327 1.44297 105.041 1.3551C105.212 1.35693 105.384 1.42854 105.495 1.56817C105.608 1.70011 105.658 1.87944 105.624 2.05175C105.583 2.26994 101.73 21.9179 84.1016 24.0914C82.4215 26.961 80.4519 28.6313 78.8829 29.5763C80.1924 29.6011 81.8103 29.6915 83.5167 29.9123C83.6875 29.7338 83.8527 29.5657 84.0256 29.3959C84.0425 29.3753 84.0643 29.3508 84.0849 29.3311C98.1042 15.1254 113.155 17.952 113.311 17.9827C113.467 18.0139 113.612 18.1123 113.699 18.2545C113.781 18.3958 113.803 18.5692 113.756 18.7263C112.192 23.998 107.725 27.2891 104.257 29.1211C98.226 32.3048 91.3542 33.1443 88.1808 32.1097C86.8748 31.6884 85.3529 31.3536 83.6625 31.116C83.6551 31.1144 83.6502 31.1172 83.6464 31.1166C79.9664 30.6108 76.6579 30.7537 76.0296 30.7843C76.0258 30.7837 76.021 30.7863 76.0172 30.7855C70.7373 31.5947 65.6521 32.4813 60.8101 33.4505C57.5985 34.0908 54.4839 34.7694 51.4887 35.483C56.2739 36.2337 66.0523 37.4498 71.8935 36.0339C71.8972 36.0347 71.8977 36.0349 71.9022 36.032C72.0655 35.9952 72.2383 35.9561 72.3956 35.9098C72.4742 35.8866 72.5533 35.8632 72.6396 35.8418C72.6797 35.8264 72.724 35.8116 72.7662 35.8048C78.2204 34.3301 94.8463 31.1336 104.792 43.2598L104.792 43.261C104.905 43.3929 104.954 43.5761 104.902 43.7526C104.868 43.9249 104.752 44.0751 104.594 44.1584C104.41 44.251 100.037 46.4421 93.7608 46.6819C91.7062 46.7555 89.3109 46.6177 86.7184 46.0334C82.0653 44.9848 76.8037 42.504 71.8237 37.2524C63.9108 39.0002 50.1614 36.4834 48.5779 36.184C42.798 37.6341 37.698 39.1479 33.2102 40.6844C35.1001 40.7622 37.3767 41.1192 39.4906 42.124C39.5687 41.9043 39.6586 41.6865 39.7629 41.4768C40.4504 40.1121 41.7169 39.1519 43.3333 38.7748C44.9114 38.4055 46.6448 38.6365 48.2037 39.422C49.1246 39.8835 49.9042 40.5016 50.5196 41.2137L50.524 41.2149C53.0982 40.5615 67.7823 37.604 77.6971 51.2793C77.8006 51.4173 77.8327 51.601 77.7903 51.7715C77.7478 51.9419 77.6268 52.0788 77.4704 52.1582C77.3696 52.2065 71.2564 54.9816 63.8993 53.3236C60.0592 52.4581 55.8779 50.3847 52.0352 46.0859C51.9597 46.548 51.8179 46.9958 51.5986 47.4255C50.9151 48.7911 49.649 49.7516 48.0326 50.1287C47.0364 50.363 45.9794 50.3579 44.9378 50.1232C44.3315 49.9865 43.7383 49.7713 43.1585 49.4809C43.0775 49.4422 43.0012 49.4001 42.9219 49.3536C43.7019 50.2421 44.3511 51.2405 44.8791 52.3589C46.7899 50.7498 50.0104 50.8691 52.5238 52.7832C55.3595 54.9338 56.2449 58.5624 54.505 60.8657C53.3241 62.4264 51.2288 62.9865 49.1183 62.511C48.1194 62.2858 47.1158 61.8265 46.202 61.1331C43.4821 59.0659 42.5576 55.6458 44.025 53.3384C42.3192 49.3083 39.0837 47.2434 35.365 46.3274C35.5978 46.4905 35.8214 46.6763 36.0407 46.8814L36.0487 46.8833C36.7142 46.9923 37.373 47.2429 37.9935 47.6244C39.2798 48.4222 40.2524 49.7066 40.7301 51.2478C41.1128 52.4851 41.1261 53.7502 40.8326 54.8719C40.8319 54.8707 40.8309 54.8694 40.8301 54.8682C40.2452 57.4785 38.1332 59.4124 35.6164 59.4125C32.6478 59.4122 30.241 56.7223 30.2408 53.4045C30.2408 53.3754 30.2423 53.3458 30.2426 53.3168C29.8678 50.4947 31.3164 47.8132 33.8087 47.0339C33.9218 47.0022 34.0318 46.9694 34.1471 46.9462C32.692 46.0818 31.0723 45.8025 29.9172 45.7265C29.9057 45.7239 29.8973 45.722 29.8888 45.724C23.1024 45.7184 16.3741 48.0241 15.1238 48.476C3.84038 54.6951 1.16863 59.7501 1.11544 59.8528C0.993487 60.1037 0.716748 60.2263 0.456462 60.1678C0.41764 60.159 0.372647 60.1401 0.331707 60.1227C0.041469 59.9794 -0.0837099 59.6278 0.0593455 59.3365C0.211353 59.0274 2.28498 55.0016 10.5283 49.7501C10.9219 48.6747 12.672 44.6814 18.3174 40.6165C18.3847 39.829 18.4676 39.0609 18.5589 38.3116L18.5595 38.3073C18.5644 38.2676 18.5697 38.2276 18.5737 38.1918L18.5743 38.1881C20.1089 25.7244 24.6057 18.4947 28.2361 14.5649C32.4781 9.96429 36.4214 8.75425 36.5866 8.70391C36.7449 8.65376 36.9236 8.67763 37.0628 8.76629C37.2058 8.85588 37.3038 9.00137 37.3327 9.1634C38.2543 14.2621 37.0002 20.4236 33.8074 26.508C30.7796 32.2771 26.4543 37.0792 21.944 39.6759C20.9917 40.2231 20.0793 40.8079 19.2241 41.4138C19.2241 41.4138 19.2223 41.4175 19.2191 41.4169C15.3304 44.1739 13.3261 46.9223 12.365 48.6311C17.6114 45.5253 24.9821 42.073 35.294 38.7439C35.7033 38.3974 37.4246 36.9046 39.7376 34.4689C41.3602 23.4094 45.946 17.0159 49.5222 13.5984C53.4468 9.8438 56.9749 8.77422 57.1236 8.72429C57.2897 8.67585 57.4758 8.70122 57.6202 8.80334C57.7654 8.90159 57.8601 9.06224 57.8777 9.23813C58.9275 20.2563 54.1266 26.7699 49.9138 30.2939C45.7709 33.7632 41.4691 35.0554 40.5868 35.2872L40.5856 35.2909C39.5895 36.3402 38.7021 37.2138 37.9744 37.9058C41.1851 36.9254 44.6634 35.9557 48.4241 35.0173L48.4501 35.0112C52.25 34.061 56.2473 33.1631 60.4136 32.3283C60.7531 32.0194 61.8683 30.9512 63.4448 28.9025C64.1529 15.8832 68.3292 8.82377 71.7169 5.19162C75.4563 1.18428 79.0316 0.349768 79.1843 0.311975ZM51.0847 58.2625C50.5835 58.1498 50.0834 58.4677 49.97 58.9703C49.8569 59.473 50.1728 59.9745 50.674 60.0875C51.1752 60.2002 51.6754 59.8824 51.7888 59.3797C51.9018 58.8771 51.5859 58.3756 51.0847 58.2625ZM36.4223 53.9739C35.855 53.9741 35.3947 54.4342 35.3946 55.0016C35.3948 55.5689 35.855 56.0291 36.4223 56.0293C36.9898 56.0293 37.4499 55.5691 37.45 55.0016C37.4499 54.4341 36.9899 53.9739 36.4223 53.9739ZM52.2767 44.1102C54.9652 44.7117 61.5333 46.4182 67.6358 49.8175C67.6827 49.8444 67.7353 49.8645 67.7896 49.8768C68.0382 49.9327 68.3036 49.8246 68.4337 49.592C68.5962 49.3052 68.4927 48.9498 68.2108 48.7879C61.4711 45.0329 54.4912 44.4355 52.2767 44.1102ZM47.5706 45.8735C47.0694 45.7607 46.5663 46.0732 46.4558 46.5806C46.3427 47.0834 46.6592 47.5811 47.1605 47.6942C47.6617 47.807 48.1611 47.4933 48.2747 46.9907C48.3887 46.4841 48.0719 45.9865 47.5706 45.8735ZM73.1824 36.9208C76.2576 37.4774 91.926 40.4809 94.9726 42.4841C95.0333 42.5223 95.0968 42.5489 95.1628 42.5638C95.3958 42.6162 95.6453 42.5251 95.7866 42.3155C95.9619 42.0438 95.8894 41.6788 95.6204 41.4953C92.8566 39.6825 78.6422 37.9464 73.1824 36.9208ZM30.2587 19.3464C29.9434 19.2795 29.5695 19.7898 29.5596 19.8034C28.3159 25.6475 22.32 35.3608 19.7268 38.5661C20.8918 37.2245 29.1244 27.5493 30.7132 20.0467C30.7094 20.0287 30.5766 19.4186 30.2667 19.3482C30.2642 19.3477 30.2612 19.3469 30.2587 19.3464ZM52.9308 16.8852C52.6414 16.7382 52.2881 16.8557 52.1408 17.1459C48.8273 23.7114 44.419 30.1493 41.0123 33.9205C41.0816 33.8447 49.9036 24.1874 53.1895 17.677C53.3364 17.3866 53.224 17.0333 52.9308 16.8852ZM104.587 23.1403C104.368 22.8988 103.996 22.8849 103.757 23.1094C99.9606 26.656 85.0428 30.0981 84.9489 30.1198C88.3986 29.676 100.176 28.0698 104.559 23.974C104.796 23.7531 104.812 23.3752 104.587 23.1403ZM74.4244 9.21466C74.1194 9.10102 73.7825 9.2547 73.6685 9.56052C70.7261 17.3524 67.6112 23.6435 65.158 27.369C67.7196 23.5965 71.9705 17.3909 74.7678 9.97616C74.8805 9.67407 74.7285 9.33238 74.4244 9.21466ZM98.7628 8.19007C98.4743 8.03908 98.1221 8.15272 97.971 8.44205C95.6436 12.9733 88.0166 20.3841 84.797 22.7864C86.7812 21.3798 96.0963 14.6649 99.0166 8.98492C99.1683 8.69151 99.0521 8.33722 98.7628 8.19007Z" fill="#4F8375"/>
</g>
</g>
</svg>

</g>
<g id="Regular-S" transform="matrix(1 0 0 1 1392.89213822635 614.7705)">
<svg width="114" height="92" viewBox="0 0 114 92" fill="none" xmlns="http://www.w3.org/2000/svg">
<g id="Logo">
<g id="Union">
<path d="M32.4302 77.5909L31.9849 77.7119C31.1147 75.3038 30.9123 74.9599 29.4552 74.9599C27.8567 74.9599 27.8365 74.9598 27.8365 76.5583V82.4069L31.1758 82.2859V82.9331H27.8365V87.4058C27.8365 89.0045 28.059 89.0047 29.4552 89.0047C31.0742 89.0047 31.8027 88.4378 32.7538 85.7667L33.1991 85.868L32.4098 90.138L31.9849 90.0769C31.823 89.6117 31.5803 89.4698 30.9936 89.4698H24.1531V89.0856C25.8328 88.944 25.8731 88.9436 25.8731 87.2032V76.7608C25.8731 75.0204 25.8328 75.0207 24.1531 74.879V74.4942H30.6898C31.2159 74.4942 31.4788 74.3728 31.6205 73.8871L32.0658 73.8464L32.4302 77.5909Z" fill="#4F8375"/>
<path d="M53.4069 74.879C51.7272 75.0207 51.6863 75.0204 51.6863 76.7608V87.4058C51.6863 89.0045 51.9092 89.0047 53.3865 89.0047C55.1269 89.0047 55.9973 88.0735 56.8877 85.5641L57.333 85.6654L56.5437 90.138L56.1188 90.0769C55.9569 89.6115 55.7138 89.4698 55.1269 89.4698H48.0035V89.0856C49.6831 88.944 49.7236 88.9436 49.7236 87.2032V76.7608C49.7236 75.0205 49.683 75.0207 48.0035 74.879V74.4942H53.4069V74.879Z" fill="#4F8375"/>
<path d="M8.33702 78.6025L7.89173 78.7242C7.18342 76.235 6.15134 75.0001 4.75495 75.0001C3.6016 75.0002 2.73179 76.093 2.7317 77.4285C2.7317 80.97 9.0248 80.9702 9.02503 85.6246C9.02503 88.0329 7.24416 89.6724 4.75495 89.6724C3.39921 89.6723 2.79195 89.1869 2.40746 89.1869C2.12421 89.187 1.88117 89.3893 1.69907 90.0367H1.2544L0.93016 84.9366L1.37545 84.8156C2.04329 87.6285 3.17685 88.964 4.897 88.964C6.37426 88.9639 7.42668 87.952 7.42668 86.5152C7.42654 82.9131 1.07239 82.7309 1.07221 78.3598C1.07221 76.0123 2.83251 74.2918 5.01805 74.2917C5.98945 74.2917 6.51616 74.6159 6.83996 74.6159C7.16357 74.6158 7.34591 74.4334 7.44706 73.8871L7.89173 73.8464L8.33702 78.6025Z" fill="#4F8375"/>
<path fill-rule="evenodd" clip-rule="evenodd" d="M81.7701 87.2032C82.2963 88.9234 82.2961 88.944 83.5711 89.0856V89.4698H78.4913V89.0856C80.0091 88.9642 80.1912 88.8627 79.7055 87.2032L79.0583 84.9774H74.5251L73.9785 86.7987C73.4726 88.4581 73.6142 88.9642 75.0105 89.0856V89.4698H71.0443V89.0856C72.2786 88.9844 72.7238 88.5187 73.2701 86.7987L77.2975 74.0897H77.8237L81.7701 87.2032ZM74.6869 84.4716H78.8958L76.8318 77.4087L74.6869 84.4716Z" fill="#4F8375"/>
<path d="M102.984 74.879C101.304 75.0004 101.284 75.0205 101.284 76.7608V82.3668H107.517V76.7608C107.517 75.0205 107.477 75.0207 105.797 74.879V74.4942H111.18V74.879C109.501 75.0004 109.481 75.0205 109.481 76.7608V87.2032C109.481 88.9436 109.521 88.944 111.201 89.0856V89.4698H105.818V89.0856C107.497 88.9642 107.517 88.9436 107.517 87.2032V82.9331H101.284V87.2032C101.284 88.9436 101.325 88.944 103.004 89.0856V89.4698H97.6214V89.0856C99.3009 88.9642 99.3211 88.9435 99.3211 87.2032V76.7608C99.3211 75.0205 99.2807 75.0207 97.6011 74.879V74.4942H102.984V74.879Z" fill="#4F8375"/>
<path fill-rule="evenodd" clip-rule="evenodd" d="M79.1843 0.311975C79.3515 0.276072 79.5316 0.312314 79.6703 0.42129C79.8099 0.526453 79.8912 0.69261 79.9019 0.862873C80.7937 20.3535 66.186 28.6707 64.4416 29.5899C64.4407 29.5929 64.4372 29.5958 64.436 29.5967C63.6714 30.5792 63.0069 31.3521 62.4776 31.925C66.7821 31.0927 71.2626 30.3158 75.8844 29.6164C75.8885 29.614 75.8931 29.6146 75.8931 29.6146C75.9409 29.6054 80.1603 28.6576 83.2061 23.2823C83.2124 23.2718 83.2189 23.2607 83.2252 23.2502C83.397 22.9409 83.5617 22.6292 83.7205 22.3047C83.7305 22.2785 83.7438 22.2565 83.7576 22.2312C84.1547 21.4114 84.5107 20.5365 84.8131 19.6299C87.9892 10.1586 97.6327 1.44297 105.041 1.3551C105.212 1.35693 105.384 1.42854 105.495 1.56817C105.608 1.70011 105.658 1.87944 105.624 2.05175C105.583 2.26994 101.73 21.9179 84.1016 24.0914C82.4215 26.961 80.4519 28.6313 78.8829 29.5763C80.1924 29.6011 81.8103 29.6915 83.5167 29.9123C83.6875 29.7338 83.8527 29.5657 84.0256 29.3959C84.0425 29.3753 84.0643 29.3508 84.0849 29.3311C98.1042 15.1254 113.155 17.952 113.311 17.9827C113.467 18.0139 113.612 18.1123 113.699 18.2545C113.781 18.3958 113.803 18.5692 113.756 18.7263C112.192 23.998 107.725 27.2891 104.257 29.1211C98.226 32.3048 91.3542 33.1443 88.1808 32.1097C86.8748 31.6884 85.3529 31.3536 83.6625 31.116C83.6551 31.1144 83.6502 31.1172 83.6464 31.1166C79.9664 30.6108 76.6579 30.7537 76.0296 30.7843C76.0258 30.7837 76.021 30.7863 76.0172 30.7855C70.7373 31.5947 65.6521 32.4813 60.8101 33.4505C57.5985 34.0908 54.4839 34.7694 51.4887 35.483C56.2739 36.2337 66.0523 37.4498 71.8935 36.0339C71.8972 36.0347 71.8977 36.0349 71.9022 36.032C72.0655 35.9952 72.2383 35.9561 72.3956 35.9098C72.4742 35.8866 72.5533 35.8632 72.6396 35.8418C72.6797 35.8264 72.724 35.8116 72.7662 35.8048C78.2204 34.3301 94.8463 31.1336 104.792 43.2598L104.792 43.261C104.905 43.3929 104.954 43.5761 104.902 43.7526C104.868 43.9249 104.752 44.0751 104.594 44.1584C104.41 44.251 100.037 46.4421 93.7608 46.6819C91.7062 46.7555 89.3109 46.6177 86.7184 46.0334C82.0653 44.9848 76.8037 42.504 71.8237 37.2524C63.9108 39.0002 50.1614 36.4834 48.5779 36.184C42.798 37.6341 37.698 39.1479 33.2102 40.6844C35.1001 40.7622 37.3767 41.1192 39.4906 42.124C39.5687 41.9043 39.6586 41.6865 39.7629 41.4768C40.4504 40.1121 41.7169 39.1519 43.3333 38.7748C44.9114 38.4055 46.6448 38.6365 48.2037 39.422C49.1246 39.8835 49.9042 40.5016 50.5196 41.2137L50.524 41.2149C53.0982 40.5615 67.7823 37.604 77.6971 51.2793C77.8006 51.4173 77.8327 51.601 77.7903 51.7715C77.7478 51.9419 77.6268 52.0788 77.4704 52.1582C77.3696 52.2065 71.2564 54.9816 63.8993 53.3236C60.0592 52.4581 55.8779 50.3847 52.0352 46.0859C51.9597 46.548 51.8179 46.9958 51.5986 47.4255C50.9151 48.7911 49.649 49.7516 48.0326 50.1287C47.0364 50.363 45.9794 50.3579 44.9378 50.1232C44.3315 49.9865 43.7383 49.7713 43.1585 49.4809C43.0775 49.4422 43.0012 49.4001 42.9219 49.3536C43.7019 50.2421 44.3511 51.2405 44.8791 52.3589C46.7899 50.7498 50.0104 50.8691 52.5238 52.7832C55.3595 54.9338 56.2449 58.5624 54.505 60.8657C53.3241 62.4264 51.2288 62.9865 49.1183 62.511C48.1194 62.2858 47.1158 61.8265 46.202 61.1331C43.4821 59.0659 42.5576 55.6458 44.025 53.3384C42.3192 49.3083 39.0837 47.2434 35.365 46.3274C35.5978 46.4905 35.8214 46.6763 36.0407 46.8814L36.0487 46.8833C36.7142 46.9923 37.373 47.2429 37.9935 47.6244C39.2798 48.4222 40.2524 49.7066 40.7301 51.2478C41.1128 52.4851 41.1261 53.7502 40.8326 54.8719C40.8319 54.8707 40.8309 54.8694 40.8301 54.8682C40.2452 57.4785 38.1332 59.4124 35.6164 59.4125C32.6478 59.4122 30.241 56.7223 30.2408 53.4045C30.2408 53.3754 30.2423 53.3458 30.2426 53.3168C29.8678 50.4947 31.3164 47.8132 33.8087 47.0339C33.9218 47.0022 34.0318 46.9694 34.1471 46.9462C32.692 46.0818 31.0723 45.8025 29.9172 45.7265C29.9057 45.7239 29.8973 45.722 29.8888 45.724C23.1024 45.7184 16.3741 48.0241 15.1238 48.476C3.84038 54.6951 1.16863 59.7501 1.11544 59.8528C0.993487 60.1037 0.716748 60.2263 0.456462 60.1678C0.41764 60.159 0.372647 60.1401 0.331707 60.1227C0.041469 59.9794 -0.0837099 59.6278 0.0593455 59.3365C0.211353 59.0274 2.28498 55.0016 10.5283 49.7501C10.9219 48.6747 12.672 44.6814 18.3174 40.6165C18.3847 39.829 18.4676 39.0609 18.5589 38.3116L18.5595 38.3073C18.5644 38.2676 18.5697 38.2276 18.5737 38.1918L18.5743 38.1881C20.1089 25.7244 24.6057 18.4947 28.2361 14.5649C32.4781 9.96429 36.4214 8.75425 36.5866 8.70391C36.7449 8.65376 36.9236 8.67763 37.0628 8.76629C37.2058 8.85588 37.3038 9.00137 37.3327 9.1634C38.2543 14.2621 37.0002 20.4236 33.8074 26.508C30.7796 32.2771 26.4543 37.0792 21.944 39.6759C20.9917 40.2231 20.0793 40.8079 19.2241 41.4138C19.2241 41.4138 19.2223 41.4175 19.2191 41.4169C15.3304 44.1739 13.3261 46.9223 12.365 48.6311C17.6114 45.5253 24.9821 42.073 35.294 38.7439C35.7033 38.3974 37.4246 36.9046 39.7376 34.4689C41.3602 23.4094 45.946 17.0159 49.5222 13.5984C53.4468 9.8438 56.9749 8.77422 57.1236 8.72429C57.2897 8.67585 57.4758 8.70122 57.6202 8.80334C57.7654 8.90159 57.8601 9.06224 57.8777 9.23813C58.9275 20.2563 54.1266 26.7699 49.9138 30.2939C45.7709 33.7632 41.4691 35.0554 40.5868 35.2872L40.5856 35.2909C39.5895 36.3402 38.7021 37.2138 37.9744 37.9058C41.1851 36.9254 44.6634 35.9557 48.4241 35.0173L48.4501 35.0112C52.25 34.061 56.2473 33.1631 60.4136 32.3283C60.7531 32.0194 61.8683 30.9512 63.4448 28.9025C64.1529 15.8832 68.3292 8.82377 71.7169 5.19162C75.4563 1.18428 79.0316 0.349768 79.1843 0.311975ZM51.0847 58.2625C50.5835 58.1498 50.0834 58.4677 49.97 58.9703C49.8569 59.473 50.1728 59.9745 50.674 60.0875C51.1752 60.2002 51.6754 59.8824 51.7888 59.3797C51.9018 58.8771 51.5859 58.3756 51.0847 58.2625ZM36.4223 53.9739C35.855 53.9741 35.3947 54.4342 35.3946 55.0016C35.3948 55.5689 35.855 56.0291 36.4223 56.0293C36.9898 56.0293 37.4499 55.5691 37.45 55.0016C37.4499 54.4341 36.9899 53.9739 36.4223 53.9739ZM52.2767 44.1102C54.9652 44.7117 61.5333 46.4182 67.6358 49.8175C67.6827 49.8444 67.7353 49.8645 67.7896 49.8768C68.0382 49.9327 68.3036 49.8246 68.4337 49.592C68.5962 49.3052 68.4927 48.9498 68.2108 48.7879C61.4711 45.0329 54.4912 44.4355 52.2767 44.1102ZM47.5706 45.8735C47.0694 45.7607 46.5663 46.0732 46.4558 46.5806C46.3427 47.0834 46.6592 47.5811 47.1605 47.6942C47.6617 47.807 48.1611 47.4933 48.2747 46.9907C48.3887 46.4841 48.0719 45.9865 47.5706 45.8735ZM73.1824 36.9208C76.2576 37.4774 91.926 40.4809 94.9726 42.4841C95.0333 42.5223 95.0968 42.5489 95.1628 42.5638C95.3958 42.6162 95.6453 42.5251 95.7866 42.3155C95.9619 42.0438 95.8894 41.6788 95.6204 41.4953C92.8566 39.6825 78.6422 37.9464 73.1824 36.9208ZM30.2587 19.3464C29.9434 19.2795 29.5695 19.7898 29.5596 19.8034C28.3159 25.6475 22.32 35.3608 19.7268 38.5661C20.8918 37.2245 29.1244 27.5493 30.7132 20.0467C30.7094 20.0287 30.5766 19.4186 30.2667 19.3482C30.2642 19.3477 30.2612 19.3469 30.2587 19.3464ZM52.9308 16.8852C52.6414 16.7382 52.2881 16.8557 52.1408 17.1459C48.8273 23.7114 44.419 30.1493 41.0123 33.9205C41.0816 33.8447 49.9036 24.1874 53.1895 17.677C53.3364 17.3866 53.224 17.0333 52.9308 16.8852ZM104.587 23.1403C104.368 22.8988 103.996 22.8849 103.757 23.1094C99.9606 26.656 85.0428 30.0981 84.9489 30.1198C88.3986 29.676 100.176 28.0698 104.559 23.974C104.796 23.7531 104.812 23.3752 104.587 23.1403ZM74.4244 9.21466C74.1194 9.10102 73.7825 9.2547 73.6685 9.56052C70.7261 17.3524 67.6112 23.6435 65.158 27.369C67.7196 23.5965 71.9705 17.3909 74.7678 9.97616C74.8805 9.67407 74.7285 9.33238 74.4244 9.21466ZM98.7628 8.19007C98.4743 8.03908 98.1221 8.15272 97.971 8.44205C95.6436 12.9733 88.0166 20.3841 84.797 22.7864C86.7812 21.3798 96.0963 14.6649 99.0166 8.98492C99.1683 8.69151 99.0521 8.33722 98.7628 8.19007Z" fill="#4F8375"/>
</g>
</g>
</svg>

</g>
<g id="Black-S" transform="matrix(1 0 0 1 2876.45213822635 614.7705)">
<svg width="114" height="92" viewBox="0 0 114 92" fill="none" xmlns="http://www.w3.org/2000/svg">
<g id="Logo">
<g id="Union">
<path d="M32.4302 77.5909L31.9849 77.7119C31.1147 75.3038 30.9123 74.9599 29.4552 74.9599C27.8567 74.9599 27.8365 74.9598 27.8365 76.5583V82.4069L31.1758 82.2859V82.9331H27.8365V87.4058C27.8365 89.0045 28.059 89.0047 29.4552 89.0047C31.0742 89.0047 31.8027 88.4378 32.7538 85.7667L33.1991 85.868L32.4098 90.138L31.9849 90.0769C31.823 89.6117 31.5803 89.4698 30.9936 89.4698H24.1531V89.0856C25.8328 88.944 25.8731 88.9436 25.8731 87.2032V76.7608C25.8731 75.0204 25.8328 75.0207 24.1531 74.879V74.4942H30.6898C31.2159 74.4942 31.4788 74.3728 31.6205 73.8871L32.0658 73.8464L32.4302 77.5909Z" fill="#4F8375"/>
<path d="M53.4069 74.879C51.7272 75.0207 51.6863 75.0204 51.6863 76.7608V87.4058C51.6863 89.0045 51.9092 89.0047 53.3865 89.0047C55.1269 89.0047 55.9973 88.0735 56.8877 85.5641L57.333 85.6654L56.5437 90.138L56.1188 90.0769C55.9569 89.6115 55.7138 89.4698 55.1269 89.4698H48.0035V89.0856C49.6831 88.944 49.7236 88.9436 49.7236 87.2032V76.7608C49.7236 75.0205 49.683 75.0207 48.0035 74.879V74.4942H53.4069V74.879Z" fill="#4F8375"/>
<path d="M8.33702 78.6025L7.89173 78.7242C7.18342 76.235 6.15134 75.0001 4.75495 75.0001C3.6016 75.0002 2.73179 76.093 2.7317 77.4285C2.7317 80.97 9.0248 80.9702 9.02503 85.6246C9.02503 88.0329 7.24416 89.6724 4.75495 89.6724C3.39921 89.6723 2.79195 89.1869 2.40746 89.1869C2.12421 89.187 1.88117 89.3893 1.69907 90.0367H1.2544L0.93016 84.9366L1.37545 84.8156C2.04329 87.6285 3.17685 88.964 4.897 88.964C6.37426 88.9639 7.42668 87.952 7.42668 86.5152C7.42654 82.9131 1.07239 82.7309 1.07221 78.3598C1.07221 76.0123 2.83251 74.2918 5.01805 74.2917C5.98945 74.2917 6.51616 74.6159 6.83996 74.6159C7.16357 74.6158 7.34591 74.4334 7.44706 73.8871L7.89173 73.8464L8.33702 78.6025Z" fill="#4F8375"/>
<path fill-rule="evenodd" clip-rule="evenodd" d="M81.7701 87.2032C82.2963 88.9234 82.2961 88.944 83.5711 89.0856V89.4698H78.4913V89.0856C80.0091 88.9642 80.1912 88.8627 79.7055 87.2032L79.0583 84.9774H74.5251L73.9785 86.7987C73.4726 88.4581 73.6142 88.9642 75.0105 89.0856V89.4698H71.0443V89.0856C72.2786 88.9844 72.7238 88.5187 73.2701 86.7987L77.2975 74.0897H77.8237L81.7701 87.2032ZM74.6869 84.4716H78.8958L76.8318 77.4087L74.6869 84.4716Z" fill="#4F8375"/>
<path d="M102.984 74.879C101.304 75.0004 101.284 75.0205 101.284 76.7608V82.3668H107.517V76.7608C107.517 75.0205 107.477 75.0207 105.797 74.879V74.4942H111.18V74.879C109.501 75.0004 109.481 75.0205 109.481 76.7608V87.2032C109.481 88.9436 109.521 88.944 111.201 89.0856V89.4698H105.818V89.0856C107.497 88.9642 107.517 88.9436 107.517 87.2032V82.9331H101.284V87.2032C101.284 88.9436 101.325 88.944 103.004 89.0856V89.4698H97.6214V89.0856C99.3009 88.9642 99.3211 88.9435 99.3211 87.2032V76.7608C99.3211 75.0205 99.2807 75.0207 97.6011 74.879V74.4942H102.984V74.879Z" fill="#4F8375"/>
<path fill-rule="evenodd" clip-rule="evenodd" d="M79.1843 0.311975C79.3515 0.276072 79.5316 0.312314 79.6703 0.42129C79.8099 0.526453 79.8912 0.69261 79.9019 0.862873C80.7937 20.3535 66.186 28.6707 64.4416 29.5899C64.4407 29.5929 64.4372 29.5958 64.436 29.5967C63.6714 30.5792 63.0069 31.3521 62.4776 31.925C66.7821 31.0927 71.2626 30.3158 75.8844 29.6164C75.8885 29.614 75.8931 29.6146 75.8931 29.6146C75.9409 29.6054 80.1603 28.6576 83.2061 23.2823C83.2124 23.2718 83.2189 23.2607 83.2252 23.2502C83.397 22.9409 83.5617 22.6292 83.7205 22.3047C83.7305 22.2785 83.7438 22.2565 83.7576 22.2312C84.1547 21.4114 84.5107 20.5365 84.8131 19.6299C87.9892 10.1586 97.6327 1.44297 105.041 1.3551C105.212 1.35693 105.384 1.42854 105.495 1.56817C105.608 1.70011 105.658 1.87944 105.624 2.05175C105.583 2.26994 101.73 21.9179 84.1016 24.0914C82.4215 26.961 80.4519 28.6313 78.8829 29.5763C80.1924 29.6011 81.8103 29.6915 83.5167 29.9123C83.6875 29.7338 83.8527 29.5657 84.0256 29.3959C84.0425 29.3753 84.0643 29.3508 84.0849 29.3311C98.1042 15.1254 113.155 17.952 113.311 17.9827C113.467 18.0139 113.612 18.1123 113.699 18.2545C113.781 18.3958 113.803 18.5692 113.756 18.7263C112.192 23.998 107.725 27.2891 104.257 29.1211C98.226 32.3048 91.3542 33.1443 88.1808 32.1097C86.8748 31.6884 85.3529 31.3536 83.6625 31.116C83.6551 31.1144 83.6502 31.1172 83.6464 31.1166C79.9664 30.6108 76.6579 30.7537 76.0296 30.7843C76.0258 30.7837 76.021 30.7863 76.0172 30.7855C70.7373 31.5947 65.6521 32.4813 60.8101 33.4505C57.5985 34.0908 54.4839 34.7694 51.4887 35.483C56.2739 36.2337 66.0523 37.4498 71.8935 36.0339C71.8972 36.0347 71.8977 36.0349 71.9022 36.032C72.0655 35.9952 72.2383 35.9561 72.3956 35.9098C72.4742 35.8866 72.5533 35.8632 72.6396 35.8418C72.6797 35.8264 72.724 35.8116 72.7662 35.8048C78.2204 34.3301 94.8463 31.1336 104.792 43.2598L104.792 43.261C104.905 43.3929 104.954 43.5761 104.902 43.7526C104.868 43.9249 104.752 44.0751 104.594 44.1584C104.41 44.251 100.037 46.4421 93.7608 46.6819C91.7062 46.7555 89.3109 46.6177 86.7184 46.0334C82.0653 44.9848 76.8037 42.504 71.8237 37.2524C63.9108 39.0002 50.1614 36.4834 48.5779 36.184C42.798 37.6341 37.698 39.1479 33.2102 40.6844C35.1001 40.7622 37.3767 41.1192 39.4906 42.124C39.5687 41.9043 39.6586 41.6865 39.7629 41.4768C40.4504 40.1121 41.7169 39.1519 43.3333 38.7748C44.9114 38.4055 46.6448 38.6365 48.2037 39.422C49.1246 39.8835 49.9042 40.5016 50.5196 41.2137L50.524 41.2149C53.0982 40.5615 67.7823 37.604 77.6971 51.2793C77.8006 51.4173 77.8327 51.601 77.7903 51.7715C77.7478 51.9419 77.6268 52.0788 77.4704 52.1582C77.3696 52.2065 71.2564 54.9816 63.8993 53.3236C60.0592 52.4581 55.8779 50.3847 52.0352 46.0859C51.9597 46.548 51.8179 46.9958 51.5986 47.4255C50.9151 48.7911 49.649 49.7516 48.0326 50.1287C47.0364 50.363 45.9794 50.3579 44.9378 50.1232C44.3315 49.9865 43.7383 49.7713 43.1585 49.4809C43.0775 49.4422 43.0012 49.4001 42.9219 49.3536C43.7019 50.2421 44.3511 51.2405 44.8791 52.3589C46.7899 50.7498 50.0104 50.8691 52.5238 52.7832C55.3595 54.9338 56.2449 58.5624 54.505 60.8657C53.3241 62.4264 51.2288 62.9865 49.1183 62.511C48.1194 62.2858 47.1158 61.8265 46.202 61.1331C43.4821 59.0659 42.5576 55.6458 44.025 53.3384C42.3192 49.3083 39.0837 47.2434 35.365 46.3274C35.5978 46.4905 35.8214 46.6763 36.0407 46.8814L36.0487 46.8833C36.7142 46.9923 37.373 47.2429 37.9935 47.6244C39.2798 48.4222 40.2524 49.7066 40.7301 51.2478C41.1128 52.4851 41.1261 53.7502 40.8326 54.8719C40.8319 54.8707 40.8309 54.8694 40.8301 54.8682C40.2452 57.4785 38.1332 59.4124 35.6164 59.4125C32.6478 59.4122 30.241 56.7223 30.2408 53.4045C30.2408 53.3754 30.2423 53.3458 30.2426 53.3168C29.8678 50.4947 31.3164 47.8132 33.8087 47.0339C33.9218 47.0022 34.0318 46.9694 34.1471 46.9462C32.692 46.0818 31.0723 45.8025 29.9172 45.7265C29.9057 45.7239 29.8973 45.722 29.8888 45.724C23.1024 45.7184 16.3741 48.0241 15.1238 48.476C3.84038 54.6951 1.16863 59.7501 1.11544 59.8528C0.993487 60.1037 0.716748 60.2263 0.456462 60.1678C0.41764 60.159 0.372647 60.1401 0.331707 60.1227C0.041469 59.9794 -0.0837099 59.6278 0.0593455 59.3365C0.211353 59.0274 2.28498 55.0016 10.5283 49.7501C10.9219 48.6747 12.672 44.6814 18.3174 40.6165C18.3847 39.829 18.4676 39.0609 18.5589 38.3116L18.5595 38.3073C18.5644 38.2676 18.5697 38.2276 18.5737 38.1918L18.5743 38.1881C20.1089 25.7244 24.6057 18.4947 28.2361 14.5649C32.4781 9.96429 36.4214 8.75425 36.5866 8.70391C36.7449 8.65376 36.9236 8.67763 37.0628 8.76629C37.2058 8.85588 37.3038 9.00137 37.3327 9.1634C38.2543 14.2621 37.0002 20.4236 33.8074 26.508C30.7796 32.2771 26.4543 37.0792 21.944 39.6759C20.9917 40.2231 20.0793 40.8079 19.2241 41.4138C19.2241 41.4138 19.2223 41.4175 19.2191 41.4169C15.3304 44.1739 13.3261 46.9223 12.365 48.6311C17.6114 45.5253 24.9821 42.073 35.294 38.7439C35.7033 38.3974 37.4246 36.9046 39.7376 34.4689C41.3602 23.4094 45.946 17.0159 49.5222 13.5984C53.4468 9.8438 56.9749 8.77422 57.1236 8.72429C57.2897 8.67585 57.4758 8.70122 57.6202 8.80334C57.7654 8.90159 57.8601 9.06224 57.8777 9.23813C58.9275 20.2563 54.1266 26.7699 49.9138 30.2939C45.7709 33.7632 41.4691 35.0554 40.5868 35.2872L40.5856 35.2909C39.5895 36.3402 38.7021 37.2138 37.9744 37.9058C41.1851 36.9254 44.6634 35.9557 48.4241 35.0173L48.4501 35.0112C52.25 34.061 56.2473 33.1631 60.4136 32.3283C60.7531 32.0194 61.8683 30.9512 63.4448 28.9025C64.1529 15.8832 68.3292 8.82377 71.7169 5.19162C75.4563 1.18428 79.0316 0.349768 79.1843 0.311975ZM51.0847 58.2625C50.5835 58.1498 50.0834 58.4677 49.97 58.9703C49.8569 59.473 50.1728 59.9745 50.674 60.0875C51.1752 60.2002 51.6754 59.8824 51.7888 59.3797C51.9018 58.8771 51.5859 58.3756 51.0847 58.2625ZM36.4223 53.9739C35.855 53.9741 35.3947 54.4342 35.3946 55.0016C35.3948 55.5689 35.855 56.0291 36.4223 56.0293C36.9898 56.0293 37.4499 55.5691 37.45 55.0016C37.4499 54.4341 36.9899 53.9739 36.4223 53.9739ZM52.2767 44.1102C54.9652 44.7117 61.5333 46.4182 67.6358 49.8175C67.6827 49.8444 67.7353 49.8645 67.7896 49.8768C68.0382 49.9327 68.3036 49.8246 68.4337 49.592C68.5962 49.3052 68.4927 48.9498 68.2108 48.7879C61.4711 45.0329 54.4912 44.4355 52.2767 44.1102ZM47.5706 45.8735C47.0694 45.7607 46.5663 46.0732 46.4558 46.5806C46.3427 47.0834 46.6592 47.5811 47.1605 47.6942C47.6617 47.807 48.1611 47.4933 48.2747 46.9907C48.3887 46.4841 48.0719 45.9865 47.5706 45.8735ZM73.1824 36.9208C76.2576 37.4774 91.926 40.4809 94.9726 42.4841C95.0333 42.5223 95.0968 42.5489 95.1628 42.5638C95.3958 42.6162 95.6453 42.5251 95.7866 42.3155C95.9619 42.0438 95.8894 41.6788 95.6204 41.4953C92.8566 39.6825 78.6422 37.9464 73.1824 36.9208ZM30.2587 19.3464C29.9434 19.2795 29.5695 19.7898 29.5596 19.8034C28.3159 25.6475 22.32 35.3608 19.7268 38.5661C20.8918 37.2245 29.1244 27.5493 30.7132 20.0467C30.7094 20.0287 30.5766 19.4186 30.2667 19.3482C30.2642 19.3477 30.2612 19.3469 30.2587 19.3464ZM52.9308 16.8852C52.6414 16.7382 52.2881 16.8557 52.1408 17.1459C48.8273 23.7114 44.419 30.1493 41.0123 33.9205C41.0816 33.8447 49.9036 24.1874 53.1895 17.677C53.3364 17.3866 53.224 17.0333 52.9308 16.8852ZM104.587 23.1403C104.368 22.8988 103.996 22.8849 103.757 23.1094C99.9606 26.656 85.0428 30.0981 84.9489 30.1198C88.3986 29.676 100.176 28.0698 104.559 23.974C104.796 23.7531 104.812 23.3752 104.587 23.1403ZM74.4244 9.21466C74.1194 9.10102 73.7825 9.2547 73.6685 9.56052C70.7261 17.3524 67.6112 23.6435 65.158 27.369C67.7196 23.5965 71.9705 17.3909 74.7678 9.97616C74.8805 9.67407 74.7285 9.33238 74.4244 9.21466ZM98.7628 8.19007C98.4743 8.03908 98.1221 8.15272 97.971 8.44205C95.6436 12.9733 88.0166 20.3841 84.797 22.7864C86.7812 21.3798 96.0963 14.6649 99.0166 8.98492C99.1683 8.69151 99.0521 8.33722 98.7628 8.19007Z" fill="#4F8375"/>
</g>
</g>
</svg>

</g>
</g>
</svg>