<svg width="180" height="99" viewBox="0 0 180 99" fill="none" xmlns="http://www.w3.org/2000/svg">
<path d="M125.208 0.0212377C125.473 -0.0356747 125.757 0.0217495 125.977 0.194089C126.198 0.360454 126.326 0.622959 126.343 0.892331C127.753 31.7132 104.653 44.864 101.897 46.3162C101.895 46.3215 101.889 46.3259 101.888 46.3269C100.679 47.8809 99.6283 49.1025 98.7912 50.0085C105.598 48.6925 112.682 47.4641 119.99 46.3582C119.997 46.3541 120.003 46.355 120.004 46.3552C120.049 46.3475 126.74 44.8617 131.568 36.3425C131.578 36.3257 131.588 36.3086 131.598 36.2917C131.87 35.8025 132.13 35.31 132.381 34.7966C132.397 34.755 132.418 34.7207 132.44 34.6804C133.068 33.384 133.63 32.001 134.109 30.5671C139.131 15.5908 154.379 1.8096 166.094 1.67065C166.364 1.67345 166.636 1.78668 166.812 2.00757C166.991 2.21632 167.07 2.49958 167.015 2.77221C166.954 3.10418 160.865 34.1846 132.984 37.6218C130.327 42.1598 127.213 44.8004 124.732 46.2947C126.802 46.3339 129.36 46.4769 132.059 46.8259C132.329 46.5436 132.59 46.2781 132.863 46.0095C132.89 45.9768 132.924 45.9384 132.957 45.907C155.124 23.4456 178.921 27.9135 179.17 27.9626C179.417 28.012 179.647 28.1674 179.783 28.3923C179.914 28.6161 179.949 28.8898 179.873 29.1384C177.4 37.4745 170.338 42.6782 164.854 45.5749C155.317 50.6091 144.451 51.9366 139.434 50.3005C137.369 49.6344 134.962 49.105 132.289 48.7292C132.277 48.7268 132.27 48.7314 132.264 48.7302C126.444 47.9304 121.212 48.1565 120.22 48.2048C120.214 48.2039 120.206 48.2081 120.2 48.2068C111.851 49.4863 103.811 50.8881 96.1544 52.4207C91.076 53.4331 86.1515 54.5062 81.4152 55.6345C88.9816 56.8215 104.443 58.7445 113.68 56.5056C113.686 56.507 113.686 56.5073 113.694 56.5027C113.952 56.4444 114.225 56.3827 114.474 56.3093C114.598 56.2727 114.723 56.2358 114.86 56.2019C114.923 56.1774 114.993 56.1541 115.06 56.1433C123.684 53.8116 149.973 48.7569 165.699 67.9314L165.7 67.9333C165.879 68.142 165.956 68.4314 165.874 68.7107C165.819 68.9833 165.636 69.2206 165.387 69.3523C165.098 69.4981 158.181 72.9633 148.257 73.3425C145.008 73.4588 141.221 73.241 137.121 72.3171C129.764 70.6589 121.444 66.7363 113.569 58.4324C101.057 61.1961 79.3152 57.2162 76.8126 56.7429C67.6731 59.036 59.6092 61.4294 52.5128 63.8591C55.5012 63.982 59.1009 64.5467 62.4435 66.1355C62.567 65.7879 62.709 65.4439 62.8742 65.1121C63.9611 62.9539 65.9636 61.436 68.5197 60.8396C71.0151 60.2555 73.7558 60.6209 76.2208 61.863C77.6772 62.5928 78.9098 63.5701 79.883 64.696L79.8898 64.698C83.959 63.6651 107.179 58.9875 122.857 80.6121C123.02 80.8303 123.071 81.1206 123.004 81.3904C122.937 81.66 122.746 81.8762 122.498 82.0017C122.342 82.0767 112.675 86.4667 101.039 83.8445C94.9671 82.4759 88.3556 79.1975 82.2794 72.4001C82.1599 73.1311 81.9359 73.8387 81.589 74.5183C80.5082 76.6779 78.5065 78.1964 75.9503 78.7927C74.3751 79.1631 72.7039 79.1551 71.0568 78.7839C70.0981 78.5679 69.1602 78.2275 68.2433 77.7683C68.1152 77.7071 67.9946 77.6407 67.8693 77.5671C69.1026 78.9721 70.1291 80.5506 70.964 82.3191C73.9853 79.7745 79.0776 79.9633 83.0519 82.99C87.5361 86.3907 88.9363 92.1282 86.1847 95.7703C84.3173 98.2383 81.0045 99.1238 77.6671 98.3718C76.0876 98.0158 74.5007 97.2895 73.0558 96.1931C68.755 92.9244 67.293 87.5164 69.6134 83.8679C66.9161 77.4951 61.8004 74.2303 55.9201 72.782C56.2882 73.0398 56.6417 73.3337 56.9884 73.658L57.0011 73.6609C58.0536 73.8333 59.095 74.2295 60.0763 74.8328C62.1103 76.0944 63.6481 78.1251 64.4035 80.5623C65.0088 82.5189 65.0299 84.519 64.5656 86.2927C64.5644 86.2907 64.5628 86.2889 64.5617 86.2869C63.6368 90.4145 60.2974 93.4724 56.3175 93.4724C51.6235 93.472 47.8177 89.2187 47.8175 83.9724C47.8175 83.9262 47.8199 83.8798 47.8205 83.8337C47.2276 79.3712 49.5182 75.1313 53.4591 73.8992C53.6382 73.8489 53.8119 73.7971 53.9943 73.7605C51.6934 72.3936 49.1323 71.952 47.3058 71.8318C47.2875 71.8277 47.2745 71.8245 47.2609 71.8279C36.5294 71.819 25.8901 75.4653 23.9142 76.1794C6.05444 86.0231 1.83964 94.0219 1.76381 94.1687C1.57098 94.5656 1.13353 94.7594 0.721821 94.6667C0.6604 94.6529 0.589313 94.623 0.524555 94.5955C0.0656322 94.3688 -0.132435 93.8128 0.093891 93.3523C0.332367 92.8671 3.60884 86.5005 16.6476 78.1941C17.2698 76.4943 20.0364 70.1799 28.964 63.7517C29.0703 62.5063 29.2015 61.2922 29.3458 60.1072L29.3468 60.1003C29.3546 60.0374 29.3629 59.9745 29.3693 59.9177L29.3703 59.9119C31.7967 40.2036 38.9071 28.7722 44.6476 22.5583C51.3558 15.2829 57.5914 13.3701 57.8517 13.2908C58.102 13.2113 58.3845 13.2492 58.6046 13.3894C58.831 13.5311 58.9859 13.761 59.0314 14.0173C60.4887 22.0798 58.5059 31.822 53.4572 41.4431C48.6694 50.5655 41.8304 58.1586 34.6984 62.2644C33.1924 63.1297 31.7501 64.0543 30.3976 65.0124C30.3973 65.0134 30.3954 65.0186 30.3898 65.0173C24.2405 69.3771 21.0715 73.7227 19.5519 76.4246C27.8476 71.5136 39.502 66.0549 55.8078 60.7908C56.4542 60.2435 59.1759 57.8832 62.8341 54.031C65.3998 36.543 72.6509 26.434 78.3058 21.03C84.5122 15.0924 90.091 13.4017 90.3253 13.323C90.588 13.2462 90.8822 13.2865 91.1105 13.448C91.3403 13.6034 91.49 13.8572 91.5177 14.1355C93.1778 31.5581 85.5865 41.8573 78.9249 47.4294C72.3733 52.9157 65.571 54.9587 64.1769 55.3249L64.1749 55.3308C62.5997 56.9903 61.1968 58.3712 60.046 59.4656C65.123 57.9152 70.6228 56.3821 76.5695 54.8982L76.6105 54.8884C82.6191 53.386 88.9395 51.9662 95.5275 50.6462C96.0639 50.1582 97.827 48.4696 100.32 45.2292C101.44 24.6425 108.044 13.4803 113.401 7.73706C119.314 1.39979 124.967 0.0808399 125.208 0.0212377ZM80.7765 91.6541C79.9838 91.4758 79.193 91.9782 79.0138 92.7732C78.8349 93.5682 79.3345 94.361 80.1271 94.5398C80.9198 94.7181 81.7106 94.2156 81.8898 93.4207C82.0688 92.6256 81.5693 91.8327 80.7765 91.6541ZM57.5929 84.8728C56.6956 84.8729 55.9679 85.6004 55.9679 86.4978C55.9682 87.395 56.6957 88.1227 57.5929 88.1228C58.4902 88.1228 59.2177 87.395 59.2179 86.4978C59.2179 85.6003 58.4904 84.8728 57.5929 84.8728ZM82.6613 69.2761C86.9122 70.2272 97.2979 72.9254 106.947 78.3005C107.022 78.3431 107.105 78.3749 107.191 78.3943C107.584 78.4829 108.003 78.312 108.209 77.9441C108.466 77.4904 108.303 76.9286 107.857 76.6726C97.1995 70.735 86.1626 69.7904 82.6613 69.2761ZM75.2199 72.0642C74.4271 71.8858 73.6316 72.3798 73.4572 73.1824C73.2781 73.9774 73.7787 74.7643 74.5714 74.9431C75.3641 75.1217 76.1537 74.6257 76.3331 73.8308C76.5138 73.0294 76.0128 72.2429 75.2199 72.0642ZM115.718 57.908C120.58 58.788 145.355 63.5373 150.173 66.7048C150.269 66.7653 150.369 66.8073 150.474 66.8308C150.842 66.9139 151.237 66.7698 151.46 66.4382C151.738 66.0085 151.623 65.4316 151.197 65.1414C146.827 62.2749 124.351 59.5296 115.718 57.908ZM47.8458 30.1189C47.3405 30.0118 46.7404 30.8416 46.7404 30.8416C44.7738 40.0826 35.2928 55.4417 31.1925 60.5095C33.0333 58.3898 46.0522 43.0903 48.5646 31.2263C48.5602 31.2059 48.3508 30.2334 47.8585 30.1218C47.8545 30.1209 47.8498 30.1198 47.8458 30.1189ZM83.6955 26.2273C83.2377 25.9948 82.6791 26.1802 82.4464 26.6394C77.2068 37.0213 70.2366 47.2008 64.8498 53.1638C64.9223 53.0845 78.9019 37.7875 84.1046 27.4792C84.3372 27.02 84.1594 26.4614 83.6955 26.2273ZM165.376 36.1179C165.03 35.7359 164.441 35.7138 164.064 36.0691C158.053 41.6837 134.417 47.1325 134.323 47.1541C139.778 46.4524 158.401 43.9128 165.331 37.4363C165.707 37.087 165.732 36.4895 165.376 36.1179ZM117.682 14.0984C117.199 13.9187 116.667 14.1614 116.486 14.6453C111.834 26.9663 106.909 36.9136 103.029 42.8044C107.08 36.8393 113.802 27.0272 118.225 15.3025C118.403 14.8246 118.163 14.2845 117.682 14.0984ZM156.166 12.4783C155.71 12.2395 155.153 12.4189 154.914 12.8767C151.234 20.0418 139.174 31.76 134.083 35.5583C137.22 33.3349 151.95 22.7168 156.568 13.7351C156.808 13.271 156.624 12.711 156.166 12.4783Z" fill="#4F8375"/>
</svg>
