<svg width="181" height="146" viewBox="0 0 181 146" fill="none" xmlns="http://www.w3.org/2000/svg">
<path d="M7.52 142.32C5.376 142.32 4.416 141.552 3.808 141.552C3.36 141.552 2.976 141.872 2.688 142.896H1.984L1.472 134.832L2.176 134.64C3.232 139.088 5.024 141.2 7.744 141.2C10.08 141.2 11.744 139.6 11.744 137.328C11.744 131.632 1.696 131.344 1.696 124.432C1.696 120.72 4.48 118 7.936 118C9.472 118 10.304 118.512 10.816 118.512C11.328 118.512 11.616 118.224 11.776 117.36L12.48 117.296L13.184 124.816L12.48 125.008C11.36 121.072 9.728 119.12 7.52 119.12C5.696 119.12 4.32 120.848 4.32 122.96C4.32 128.56 14.272 128.56 14.272 135.92C14.272 139.728 11.456 142.32 7.52 142.32ZM51.7925 136.144L52.4965 136.304L51.2485 143.056L50.5765 142.96C50.3205 142.224 49.9365 142 49.0085 142H38.1925V141.392C40.8485 141.168 40.9125 141.168 40.9125 138.416V121.904C40.9125 119.152 40.8485 119.152 38.1925 118.928V118.32H48.5285C49.3605 118.32 49.7765 118.128 50.0005 117.36L50.7045 117.296L51.2805 123.216L50.5765 123.408C49.2005 119.6 48.8805 119.056 46.5765 119.056C44.0485 119.056 44.0165 119.056 44.0165 121.584V130.832L49.2965 130.64V131.664H44.0165V138.736C44.0165 141.264 44.3685 141.264 46.5765 141.264C49.1365 141.264 50.2885 140.368 51.7925 136.144ZM90.657 135.984L89.409 143.056L88.737 142.96C88.481 142.224 88.097 142 87.169 142H75.905V141.392C78.561 141.168 78.625 141.168 78.625 138.416V121.904C78.625 119.152 78.561 119.152 75.905 118.928V118.32H84.449V118.928C81.793 119.152 81.729 119.152 81.729 121.904V138.736C81.729 141.264 82.081 141.264 84.417 141.264C87.169 141.264 88.545 139.792 89.953 135.824L90.657 135.984ZM118.609 141.392V142H112.337V141.392C114.289 141.232 114.993 140.496 115.857 137.776L122.225 117.68H123.057L129.297 138.416C130.129 141.136 130.129 141.168 132.145 141.392V142H124.113V141.392C126.513 141.2 126.801 141.04 126.033 138.416L125.009 134.896H117.841L116.977 137.776C116.177 140.4 116.401 141.2 118.609 141.392ZM118.097 134.096H124.753L121.489 122.928L118.097 134.096ZM162.874 141.392V142H154.362V141.392C157.018 141.2 157.05 141.168 157.05 138.416V121.904C157.05 119.152 156.986 119.152 154.33 118.928V118.32H162.842V118.928C160.186 119.12 160.154 119.152 160.154 121.904V130.768H170.01V121.904C170.01 119.152 169.946 119.152 167.29 118.928V118.32H175.802V118.928C173.146 119.12 173.114 119.152 173.114 121.904V138.416C173.114 141.168 173.178 141.168 175.834 141.392V142H167.322V141.392C169.978 141.2 170.01 141.168 170.01 138.416V131.664H160.154V138.416C160.154 141.168 160.218 141.168 162.874 141.392Z" fill="#4F8375"/>
<path d="M125.209 1.0202C125.473 0.963428 125.758 1.02073 125.978 1.19305C126.198 1.35934 126.327 1.62207 126.344 1.89129C127.754 32.7106 104.656 45.8618 101.897 47.3151C101.896 47.3201 101.891 47.3245 101.889 47.3259C100.68 48.8797 99.6291 50.1015 98.792 51.0075C105.598 49.6915 112.683 48.463 119.991 47.3571C119.998 47.3529 120.005 47.3542 120.005 47.3542C120.081 47.3397 126.752 45.8413 131.568 37.3415C131.578 37.3248 131.589 37.3074 131.599 37.2907C131.87 36.8015 132.131 36.3088 132.382 35.7956C132.398 35.7541 132.419 35.7196 132.44 35.6794C133.068 34.383 133.631 32.9998 134.109 31.5661C139.132 16.5899 154.38 2.80837 166.095 2.66961C166.365 2.6725 166.636 2.78574 166.812 3.00653C166.991 3.21516 167.07 3.49869 167.016 3.77117C166.956 4.09532 160.869 35.1829 132.984 38.6208C130.328 43.1586 127.213 45.7993 124.732 47.2936C126.803 47.3328 129.361 47.4759 132.06 47.8249C132.33 47.5426 132.591 47.277 132.864 47.0085C132.891 46.9758 132.925 46.9372 132.958 46.9059C155.131 24.4382 178.936 28.9151 179.171 28.9616C179.418 29.011 179.648 29.1665 179.784 29.3913C179.915 29.6149 179.949 29.8889 179.874 30.1374C177.401 38.4733 170.338 43.6771 164.854 46.5739C155.318 51.6081 144.452 52.9355 139.435 51.2995C137.369 50.6333 134.963 50.1039 132.29 49.7282C132.278 49.7257 132.271 49.7301 132.265 49.7292C126.446 48.9294 121.214 49.1554 120.221 49.2038C120.215 49.2027 120.207 49.2069 120.201 49.2057C111.852 50.4853 103.812 51.887 96.1553 53.4196C91.0769 54.4321 86.1523 55.5051 81.416 56.6335C88.9826 57.8205 104.444 59.7435 113.681 57.5046C113.686 57.5059 113.687 57.5063 113.694 57.5016C113.953 57.4433 114.226 57.3817 114.475 57.3083C114.599 57.2716 114.724 57.2347 114.86 57.2009C114.924 57.1764 114.994 57.153 115.061 57.1423C123.685 54.8105 149.974 49.7562 165.7 68.9304L165.701 68.9323C165.88 69.1409 165.957 69.4305 165.875 69.7097C165.82 69.9821 165.637 70.2195 165.388 70.3513C165.102 70.4953 158.185 73.9621 148.258 74.3415C145.009 74.4578 141.222 74.24 137.122 73.3161C129.764 71.6579 121.445 67.7353 113.57 59.4313C101.058 62.195 79.3173 58.2154 76.8135 57.7419C67.674 60.0349 59.61 62.4284 52.5137 64.8581C55.502 64.981 59.1018 65.5456 62.4443 67.1345C62.5679 66.7869 62.7099 66.4427 62.875 66.111C63.962 63.953 65.9645 62.4348 68.5205 61.8386C71.0159 61.2546 73.7568 61.6199 76.2217 62.862C77.6779 63.5917 78.9106 64.5691 79.8838 65.695L79.8906 65.697C83.961 64.6638 107.18 59.9873 122.857 81.611C123.021 81.8292 123.072 82.1197 123.005 82.3893C122.938 82.6589 122.746 82.8751 122.499 83.0007C122.352 83.0713 112.681 87.4669 101.04 84.8434C94.9679 83.4749 88.3565 80.1965 82.2803 73.3991C82.1608 74.1299 81.9366 74.8377 81.5898 75.5173C80.5091 77.6768 78.5072 79.1953 75.9512 79.7917C74.376 80.1621 72.7047 80.154 71.0576 79.7829C70.0989 79.5668 69.1611 79.2265 68.2441 78.7673C68.116 78.706 67.9955 78.6396 67.8701 78.5661C69.1034 79.971 70.1299 81.5496 70.9648 83.318C73.9862 80.7738 79.0786 80.9623 83.0527 83.9889C87.5367 87.3896 88.9367 93.1272 86.1855 96.7692C84.3182 99.2373 81.0053 100.123 77.668 99.3708C76.0884 99.0148 74.5016 98.2885 73.0566 97.1921C68.7557 93.9233 67.2937 88.5154 69.6143 84.8669C66.917 78.4943 61.801 75.2293 55.9209 73.7809C56.289 74.0388 56.6426 74.3327 56.9893 74.6569L57.0019 74.6598C58.0544 74.8323 59.0959 75.2284 60.0771 75.8317C62.111 77.0933 63.6489 79.1242 64.4043 81.5612C65.0095 83.5177 65.0306 85.518 64.5664 87.2917C64.5652 87.2897 64.5637 87.2878 64.5625 87.2858C63.6377 91.4134 60.2981 94.4712 56.3184 94.4714C51.6242 94.4711 47.8185 90.2178 47.8184 84.9714C47.8184 84.9253 47.8207 84.8786 47.8213 84.8327C47.2285 80.3702 49.519 76.1302 53.46 74.8981C53.639 74.8479 53.8127 74.796 53.9951 74.7595C51.6943 73.3925 49.1331 72.951 47.3066 72.8307C47.2884 72.8266 47.2752 72.8236 47.2617 72.8268C36.531 72.8179 25.8921 76.4638 23.915 77.1784C6.07312 87.0122 1.84875 95.0052 1.76464 95.1677C1.57189 95.5646 1.13434 95.7583 0.72265 95.6657C0.661228 95.6519 0.590177 95.622 0.525385 95.5944C0.0662907 95.3678 -0.131761 94.8119 0.0947205 94.3513C0.33508 93.8624 3.6137 87.4968 16.6484 79.193C17.2709 77.4926 20.038 71.1783 28.9648 64.7507C29.0712 63.5054 29.2023 62.2911 29.3467 61.1061L29.3477 61.0993C29.3554 61.0365 29.3638 60.9733 29.3701 60.9167L29.3711 60.9108C31.7976 41.2026 38.908 29.771 44.6484 23.5573C51.3586 16.2798 57.5959 14.3679 57.8525 14.2897C58.1028 14.2104 58.3854 14.2482 58.6055 14.3884C58.8317 14.53 58.9866 14.7601 59.0322 15.0163C60.4895 23.0786 58.5065 32.8211 53.458 42.4421C48.6703 51.5643 41.8311 59.1574 34.6992 63.2634C33.1934 64.1286 31.7508 65.0534 30.3984 66.0114C30.3984 66.0114 30.3966 66.0174 30.3906 66.0163C24.2415 70.3759 21.0724 74.7216 19.5527 77.4235C27.8485 72.5126 39.503 67.0538 55.8086 61.7897C56.4558 61.2418 59.1774 58.8815 62.835 55.03C65.4007 37.5421 72.6518 27.4329 78.3066 22.029C84.515 16.0895 90.0955 14.3995 90.3262 14.322C90.5888 14.2454 90.8831 14.2855 91.1113 14.447C91.341 14.6023 91.4908 14.8563 91.5185 15.1345C93.1787 32.5568 85.5873 42.8562 78.9258 48.4284C72.3748 53.9142 65.5728 55.9573 64.1777 56.3239L64.1758 56.3298C62.6006 57.9891 61.1976 59.3702 60.0469 60.4645C65.1238 58.9142 70.6237 57.381 76.5703 55.8972L76.6113 55.8874C82.6199 54.3849 88.9404 52.9652 95.5283 51.6452C96.0652 51.1567 97.8284 49.4678 100.321 46.2282C101.441 25.6415 108.045 14.4792 113.401 8.73602C119.317 2.39688 124.972 1.07894 125.209 1.0202ZM80.7773 92.653C79.9847 92.4746 79.194 92.9773 79.0146 93.7722C78.8356 94.5673 79.3351 95.3601 80.1279 95.5388C80.9206 95.717 81.7115 95.2146 81.8906 94.4196C82.0693 93.6248 81.5698 92.8317 80.7773 92.653ZM57.5928 85.8718C56.6956 85.872 55.9679 86.5996 55.9678 87.4968C55.9678 88.3941 56.6955 89.1215 57.5928 89.1218C58.4902 89.1218 59.2178 88.3942 59.2178 87.4968C59.2176 86.5994 58.4901 85.8718 57.5928 85.8718ZM82.6621 70.2751C86.9132 71.2262 97.2989 73.9245 106.948 79.2995C107.022 79.342 107.106 79.3739 107.191 79.3932C107.585 79.4818 108.004 79.311 108.21 78.943C108.467 78.4894 108.303 77.9275 107.857 77.6716C97.2005 71.734 86.1638 70.7893 82.6621 70.2751ZM75.2207 73.0632C74.4281 72.8847 73.6326 73.3789 73.458 74.1813C73.2789 74.9765 73.7794 75.7634 74.5723 75.9421C75.3649 76.1205 76.1546 75.6246 76.334 74.8298C76.5143 74.0286 76.0133 73.2419 75.2207 73.0632ZM115.719 58.9069C120.581 59.7871 145.357 64.5363 150.174 67.7038C150.27 67.7643 150.37 67.8062 150.475 67.8298C150.843 67.9127 151.238 67.7688 151.461 67.4372C151.738 67.0075 151.624 66.4304 151.198 66.1403C146.828 63.2739 124.352 60.5286 115.719 58.9069ZM47.8467 31.1179C47.348 31.0119 46.7569 31.819 46.7412 31.8405C44.7748 41.0813 35.2938 56.4402 31.1934 61.5085C33.0355 59.3872 46.0533 44.0885 48.5654 32.2253C48.5593 32.1967 48.3493 31.2321 47.8594 31.1208C47.8553 31.1199 47.8506 31.1187 47.8467 31.1179ZM83.6963 27.2263C83.2387 26.9937 82.6801 27.1795 82.4473 27.6384C77.2078 38.0201 70.2374 48.1996 64.8506 54.1628C64.9601 54.0429 78.9098 38.7727 84.1055 28.4782C84.3377 28.019 84.1599 27.4603 83.6963 27.2263ZM165.377 37.1169C165.03 36.735 164.442 36.7131 164.064 37.068C158.062 42.6762 134.473 48.1188 134.324 48.153C139.779 47.4513 158.402 44.9117 165.332 38.4352C165.707 38.0859 165.732 37.4883 165.377 37.1169ZM117.683 15.0973C117.2 14.9176 116.668 15.1606 116.487 15.6442C111.835 27.965 106.909 37.9125 103.03 43.8034C107.081 37.8382 113.802 28.026 118.226 16.3014C118.404 15.8238 118.163 15.2835 117.683 15.0973ZM156.167 13.4772C155.711 13.2384 155.154 13.4181 154.915 13.8757C151.235 21.0405 139.175 32.7586 134.084 36.5573C137.221 34.3332 151.951 23.7154 156.568 14.7341C156.808 14.2701 156.625 13.7099 156.167 13.4772Z" fill="#4F8375"/>
</svg>
